{
  "accessors": [
    {
      "bufferView": 2,
      "componentType": 5126,
      "count": 65532,
      "max": [
        19.461172103881836,
        34.988014221191406,
        35.41313171386719
      ],
      "min": [
        0.0,
        0.021392822265625,
        0.5973548889160156
      ],
      "type": "VEC3"
    },
    {
      "bufferView": 2,
      "byteOffset": 786384,
      "componentType": 5126,
      "count": 65532,
      "max": [
        1.0,
        1.0,
        0.9999999403953552
      ],
      "min": [
        -1.0,
        -1.0,
        -0.9999997615814209
      ],
      "type": "VEC3"
    },
    {
      "bufferView": 1,
      "componentType": 5126,
      "count": 65532,
      "max": [
        0.9998000264167786,
        0.7908999919891357
      ],
      "min": [
        9.999999747378752e-05,
        0.026200000196695328
      ],
      "type": "VEC2"
    },
    {
      "bufferView": 0,
      "componentType": 5125,
      "count": 230577,
      "type": "SCALAR"
    },
    {
      "bufferView": 2,
      "byteOffset": 1572768,
      "componentType": 5126,
      "count": 65532,
      "max": [
        19.453731536865234,
        34.93934631347656,
        35.402976989746094
      ],
      "min": [
        0.029642105102539063,
        0.0,
        0.0
      ],
      "type": "VEC3"
    },
    {
      "bufferView": 2,
      "byteOffset": 2359152,
      "componentType": 5126,
      "count": 65532,
      "max": [
        1.0,
        0.9999194741249084,
        0.9999996423721313
      ],
      "min": [
        -1.0,
        -0.9999995827674866,
        -0.9999951124191284
      ],
      "type": "VEC3"
    },
    {
      "bufferView": 1,
      "byteOffset": 524256,
      "componentType": 5126,
      "count": 65532,
      "max": [
        0.9997000098228455,
        0.7908999919891357
      ],
      "min": [
        9.999999747378752e-05,
        0.1535000056028366
      ],
      "type": "VEC2"
    },
    {
      "bufferView": 0,
      "byteOffset": 922308,
      "componentType": 5125,
      "count": 243534,
      "type": "SCALAR"
    },
    {
      "bufferView": 2,
      "byteOffset": 3145536,
      "componentType": 5126,
      "count": 65532,
      "max": [
        18.499618530273438,
        34.50788879394531,
        24.00324249267578
      ],
      "min": [
        0.0,
        19.26189422607422,
        0.5887489318847656
      ],
      "type": "VEC3"
    },
    {
      "bufferView": 2,
      "byteOffset": 3931920,
      "componentType": 5126,
      "count": 65532,
      "max": [
        0.9999992251396179,
        1.0,
        0.9999988079071045
      ],
      "min": [
        -1.0,
        -1.0,
        -0.999999463558197
      ],
      "type": "VEC3"
    },
    {
      "bufferView": 1,
      "byteOffset": 1048512,
      "componentType": 5126,
      "count": 65532,
      "max": [
        0.9998000264167786,
        0.7908999919891357
      ],
      "min": [
        0.00019999999494757503,
        0.15800000727176666
      ],
      "type": "VEC2"
    },
    {
      "bufferView": 0,
      "byteOffset": 1896444,
      "componentType": 5125,
      "count": 213783,
      "type": "SCALAR"
    },
    {
      "bufferView": 2,
      "byteOffset": 4718304,
      "componentType": 5126,
      "count": 65532,
      "max": [
        19.33551788330078,
        34.988014221191406,
        31.58812713623047
      ],
      "min": [
        0.015870094299316406,
        9.992964744567871,
        0.6383018493652344
      ],
      "type": "VEC3"
    },
    {
      "bufferView": 2,
      "byteOffset": 5504688,
      "componentType": 5126,
      "count": 65532,
      "max": [
        1.0,
        1.0,
        0.9999977350234985
      ],
      "min": [
        -0.9999998807907104,
        -1.0,
        -0.9999974370002747
      ],
      "type": "VEC3"
    },
    {
      "bufferView": 1,
      "byteOffset": 1572768,
      "componentType": 5126,
      "count": 65532,
      "max": [
        0.9998000264167786,
        0.7908999919891357
      ],
      "min": [
        9.999999747378752e-05,
        0.156700000166893
      ],
      "type": "VEC2"
    },
    {
      "bufferView": 0,
      "byteOffset": 2751576,
      "componentType": 5125,
      "count": 199947,
      "type": "SCALAR"
    },
    {
      "bufferView": 2,
      "byteOffset": 6291072,
      "componentType": 5126,
      "count": 32595,
      "max": [
        19.389244079589844,
        34.988014221191406,
        34.837738037109375
      ],
      "min": [
        0.06525993347167969,
        1.56219482421875,
        0.0044536590576171875
      ],
      "type": "VEC3"
    },
    {
      "bufferView": 2,
      "byteOffset": 6682212,
      "componentType": 5126,
      "count": 32595,
      "max": [
        1.0,
        0.9999586343765259,
        0.9999994039535522
      ],
      "min": [
        -0.9999998211860657,
        -0.9999989867210388,
        -0.9999942183494568
      ],
      "type": "VEC3"
    },
    {
      "bufferView": 1,
      "byteOffset": 2097024,
      "componentType": 5126,
      "count": 32595,
      "max": [
        0.9998000264167786,
        0.7908999919891357
      ],
      "min": [
        9.999999747378752e-05,
        0.1965000033378601
      ],
      "type": "VEC2"
    },
    {
      "bufferView": 0,
      "byteOffset": 3551364,
      "componentType": 5125,
      "count": 98655,
      "type": "SCALAR"
    },
    {
      "bufferView": 2,
      "byteOffset": 7073352,
      "componentType": 5126,
      "count": 3250,
      "max": [
        19.299753189086914,
        34.988014221191406,
        24.30394744873047
      ],
      "min": [
        0.043906211853027344,
        28.981122970581055,
        0.7304649353027344
      ],
      "type": "VEC3"
    },
    {
      "bufferView": 2,
      "byteOffset": 7112352,
      "componentType": 5126,
      "count": 3250,
      "max": [
        0.9999916553497314,
        1.0,
        0.9979173541069031
      ],
      "min": [
        -0.9999754428863525,
        -0.07329948991537094,
        -1.0
      ],
      "type": "VEC3"
    },
    {
      "bufferView": 1,
      "byteOffset": 2357784,
      "componentType": 5126,
      "count": 3250,
      "max": [
        0.0,
        0.0
      ],
      "min": [
        0.0,
        0.0
      ],
      "type": "VEC2"
    },
    {
      "bufferView": 0,
      "byteOffset": 3945984,
      "componentType": 5125,
      "count": 4926,
      "type": "SCALAR"
    }
  ],
  "asset": {
    "extras": {
      "author": "Science Museum Group (https://sketchfab.com/sciencemuseum)",
      "license": "CC-BY-NC-SA-4.0 (http://creativecommons.org/licenses/by-nc-sa/4.0/)",
      "source": "https://sketchfab.com/3d-models/enigma-machine-1934-c8ee76c383654e3095ea4cc9e7990274",
      "title": "Enigma machine, 1934"
    },
    "generator": "Sketchfab-12.67.0",
    "version": "2.0"
  },
  "bufferViews": [
    {
      "buffer": 0,
      "byteLength": 3965688,
      "name": "floatBufferViews",
      "target": 34963
    },
    {
      "buffer": 0,
      "byteLength": 2383784,
      "byteOffset": 3965688,
      "byteStride": 8,
      "name": "floatBufferViews",
      "target": 34962
    },
    {
      "buffer": 0,
      "byteLength": 7151352,
      "byteOffset": 6349472,
      "byteStride": 12,
      "name": "floatBufferViews",
      "target": 34962
    }
  ],
  "buffers": [
    {
      "byteLength": 13500824,
      "uri": "scene.bin"
    }
  ],
  "images": [
    {
      "uri": "textures/enigma-machine-750-EDIT-final-textured_Material_u1_v1_baseColor.jpeg"
    },
    {
      "uri": "textures/enigma-machine-750-EDIT-final-textured_Material_u1_v1_metallicRoughness.png"
    }
  ],
  "materials": [
    {
      "doubleSided": true,
      "emissiveFactor": [
        0.30000000000000004,
        0.30000000000000004,
        0.30000000000000004
      ],
      "emissiveTexture": {
        "index": 0
      },
      "name": "enigma-machine-750-EDIT-final-textured_Material_u1_v1",
      "occlusionTexture": {
        "index": 1,
        "strength": 0.5
      },
      "pbrMetallicRoughness": {
        "baseColorTexture": {
          "index": 0
        },
        "metallicFactor": 0.5,
        "metallicRoughnessTexture": {
          "index": 1
        },
        "roughnessFactor": 0.8592708587646485
      }
    },
    {
      "doubleSided": true,
      "name": "enigma-machine-750-EDIT-final-textured_Material_u1_v1_NONE",
      "pbrMetallicRoughness": {
        "baseColorFactor": [
          0.0,
          0.0,
          0.0,
          1.0
        ],
        "metallicFactor": 0.0
      }
    }
  ],
  "meshes": [
    {
      "name": "Object_0",
      "primitives": [
        {
          "attributes": {
            "NORMAL": 1,
            "POSITION": 0,
            "TEXCOORD_0": 2
          },
          "indices": 3,
          "material": 0,
          "mode": 4
        }
      ]
    },
    {
      "name": "Object_1",
      "primitives": [
        {
          "attributes": {
            "NORMAL": 5,
            "POSITION": 4,
            "TEXCOORD_0": 6
          },
          "indices": 7,
          "material": 0,
          "mode": 4
        }
      ]
    },
    {
      "name": "Object_2",
      "primitives": [
        {
          "attributes": {
            "NORMAL": 9,
            "POSITION": 8,
            "TEXCOORD_0": 10
          },
          "indices": 11,
          "material": 0,
          "mode": 4
        }
      ]
    },
    {
      "name": "Object_3",
      "primitives": [
        {
          "attributes": {
            "NORMAL": 13,
            "POSITION": 12,
            "TEXCOORD_0": 14
          },
          "indices": 15,
          "material": 0,
          "mode": 4
        }
      ]
    },
    {
      "name": "Object_4",
      "primitives": [
        {
          "attributes": {
            "NORMAL": 17,
            "POSITION": 16,
            "TEXCOORD_0": 18
          },
          "indices": 19,
          "material": 0,
          "mode": 4
        }
      ]
    },
    {
      "name": "Object_5",
      "primitives": [
        {
          "attributes": {
            "NORMAL": 21,
            "POSITION": 20,
            "TEXCOORD_0": 22
          },
          "indices": 23,
          "material": 1,
          "mode": 4
        }
      ]
    }
  ],
  "nodes": [
    {
      "children": [
        1
      ],
      "matrix": [
        1.0,
        0.0,
        0.0,
        0.0,
        0.0,
        -1.0,
        -4.440892098500626e-16,
        0.0,
        0.0,
        4.440892098500626e-16,
        -1.0,
        0.0,
        0.0,
        -3.4866347312927255,
        4.9465246200561515,
        1.0
      ],
      "name": "Sketchfab_model"
    },
    {
      "children": [
        2
      ],
      "matrix": [
        1.0,
        0.0,
        0.0,
        0.0,
        0.0,
        1.0,
        0.0,
        0.0,
        0.0,
        0.0,
        1.0,
        0.0,
        -9.888124465942383,
        -21.7105712890625,
        -16.976594924926758,
        1.0
      ],
      "name": "enigma-machine-750-EDIT-final-textured-cropped.obj.cleaner.gles"
    },
    {
      "children": [
        3,
        4,
        5,
        6,
        7,
        8
      ],
      "name": "Object_2"
    },
    {
      "mesh": 0,
      "name": "Object_3"
    },
    {
      "mesh": 1,
      "name": "Object_4"
    },
    {
      "mesh": 2,
      "name": "Object_5"
    },
    {
      "mesh": 3,
      "name": "Object_6"
    },
    {
      "mesh": 4,
      "name": "Object_7"
    },
    {
      "mesh": 5,
      "name": "Object_8"
    }
  ],
  "samplers": [
    {
      "magFilter": 9729,
      "minFilter": 9987,
      "wrapS": 10497,
      "wrapT": 10497
    }
  ],
  "scene": 0,
  "scenes": [
    {
      "name": "Sketchfab_Scene",
      "nodes": [
        0
      ]
    }
  ],
  "textures": [
    {
      "sampler": 0,
      "source": 0
    },
    {
      "sampler": 0,
      "source": 1
    }
  ]
}
